<svg id="Layer_1" enable-background="new 0 0 512 512" height="512" viewBox="0 0 512 512" width="512" xmlns="http://www.w3.org/2000/svg"><g><g><path d="m256 512c-2.299 0-4.597-.528-6.708-1.583l-241-120.5c-5.082-2.542-8.292-7.735-8.292-13.417s3.21-10.875 8.292-13.417l120.5-60.25c4.223-2.111 9.193-2.111 13.416 0h227.584c4.223-2.111 9.193-2.111 13.416 0l120.5 60.25c5.082 2.541 8.292 7.735 8.292 13.417s-3.21 10.875-8.292 13.417l-241 120.5c-2.111 1.055-4.409 1.583-6.708 1.583z" fill="#19cffc"/></g><path d="m503.708 363.083-120.5-60.25c-4.223-2.111-9.193-2.111-13.416 0h-113.792v209.167c2.299 0 4.597-.528 6.708-1.583l241-120.5c5.082-2.541 8.292-7.735 8.292-13.417s-3.21-10.875-8.292-13.417z" fill="#00a4df"/><g><path d="m256 391.5c-2.299 0-4.597-.528-6.708-1.583l-241-120.5c-5.082-2.542-8.292-7.735-8.292-13.417s3.21-10.875 8.292-13.417l120.5-60.25c4.223-2.111 9.193-2.111 13.416 0h227.584c4.223-2.111 9.193-2.111 13.416 0l120.5 60.25c5.082 2.542 8.292 7.735 8.292 13.417s-3.21 10.875-8.292 13.417l-241 120.5c-2.111 1.055-4.409 1.583-6.708 1.583z" fill="#77de5b"/></g><path d="m503.708 242.583-120.5-60.25c-4.223-2.111-9.193-2.111-13.416 0h-113.792v209.167c2.299 0 4.597-.528 6.708-1.583l241-120.5c5.082-2.542 8.292-7.735 8.292-13.417s-3.21-10.875-8.292-13.417z" fill="#3acf60"/><g><path d="m256 271c-2.299 0-4.597-.528-6.708-1.583l-241-120.5c-5.082-2.542-8.292-7.735-8.292-13.417s3.21-10.875 8.292-13.417l241-120.5c4.223-2.111 9.193-2.111 13.416 0l241 120.5c5.082 2.541 8.292 7.735 8.292 13.417s-3.21 10.875-8.292 13.417l-241 120.5c-2.111 1.055-4.409 1.583-6.708 1.583z" fill="#ff5266"/></g><path d="m262.708 269.417 241-120.5c5.082-2.541 8.292-7.735 8.292-13.417s-3.21-10.875-8.292-13.417l-241-120.5c-2.111-1.055-4.41-1.583-6.708-1.583v271c2.299 0 4.597-.528 6.708-1.583z" fill="#f82c7f"/></g></svg>